# Blender v2.68 (sub 0) OBJ File: ''
# www.blender.org
mtllib cylinder_e.mtl
o Cylinder
v 0.000000 -0.500000 -1.000000
v 0.000000 0.500000 -1.000000
v 0.195090 -0.500000 -0.980785
v 0.195090 0.500000 -0.980785
v 0.382683 -0.500000 -0.923880
v 0.382683 0.500000 -0.923880
v 0.555570 -0.500000 -0.831470
v 0.555570 0.500000 -0.831470
v 0.707107 -0.500000 -0.707107
v 0.707107 0.500000 -0.707107
v 0.831470 -0.500000 -0.555570
v 0.831470 0.500000 -0.555570
v 0.923880 -0.500000 -0.382683
v 0.923880 0.500000 -0.382683
v 0.980785 -0.500000 -0.195090
v 0.980785 0.500000 -0.195090
v 1.000000 -0.500000 -0.000000
v 1.000000 0.500000 -0.000000
v 0.980785 -0.500000 0.195090
v 0.980785 0.500000 0.195090
v 0.923880 -0.500000 0.382683
v 0.923880 0.500000 0.382683
v 0.831470 -0.500000 0.555570
v 0.831470 0.500000 0.555570
v 0.707107 -0.500000 0.707107
v 0.707107 0.500000 0.707107
v 0.555570 -0.500000 0.831470
v 0.555570 0.500000 0.831470
v 0.382683 -0.500000 0.923880
v 0.382683 0.500000 0.923880
v 0.195090 -0.500000 0.980785
v 0.195090 0.500000 0.980785
v -0.000000 -0.500000 1.000000
v -0.000000 0.500000 1.000000
v -0.195091 -0.500000 0.980785
v -0.195091 0.500000 0.980785
v -0.382684 -0.500000 0.923879
v -0.382684 0.500000 0.923879
v -0.555571 -0.500000 0.831469
v -0.555571 0.500000 0.831469
v -0.707107 -0.500000 0.707106
v -0.707107 0.500000 0.707106
v -0.831470 -0.500000 0.555570
v -0.831470 0.500000 0.555570
v -0.923880 -0.500000 0.382683
v -0.923880 0.500000 0.382683
v -0.980785 -0.500000 0.195089
v -0.980785 0.500000 0.195089
v -1.000000 -0.500000 -0.000001
v -1.000000 0.500000 -0.000001
v -0.980785 -0.500000 -0.195091
v -0.980785 0.500000 -0.195091
v -0.923879 -0.500000 -0.382684
v -0.923879 0.500000 -0.382684
v -0.831469 -0.500000 -0.555571
v -0.831469 0.500000 -0.555571
v -0.707106 -0.500000 -0.707108
v -0.707106 0.500000 -0.707108
v -0.555569 -0.500000 -0.831470
v -0.555569 0.500000 -0.831470
v -0.382682 -0.500000 -0.923880
v -0.382682 0.500000 -0.923880
v -0.195089 -0.500000 -0.980786
v -0.195089 0.500000 -0.980786
vt 0.500000 0.000000
vt 0.500000 1.000000
vt 0.597545 0.000000
vt 0.597545 1.000000
vt 0.691342 0.000000
vt 0.691342 1.000000
vt 0.777785 0.000000
vt 0.777785 1.000000
vt 0.853553 0.000000
vt 0.853553 1.000000
vt 0.402455 0.000000
vt 0.402455 1.000000
vt 0.308658 0.000000
vt 0.308658 1.000000
vt 0.222215 0.000000
vt 0.222215 1.000000
vt 0.146447 0.000000
vt 0.146446 0.000000
vt 0.146447 1.000000
vt 0.308659 0.000000
vt 0.308659 1.000000
vt 0.597546 0.000000
vt 0.597546 1.000000
vt 0.777786 0.000000
vt 0.777786 1.000000
vt 0.853554 0.000000
vt 0.402456 0.000000
vt 0.402456 1.000000
vt 0.146446 1.000000
vt 0.853554 1.000000
vn 0.000000 0.000000 -1.000000
vn 0.195074 0.000000 -0.980773
vn 0.382672 0.000000 -0.923856
vn 0.555559 0.000000 -0.831446
vn 0.707083 0.000000 -0.707083
vn 0.831446 0.000000 -0.555559
vn 0.923856 0.000000 -0.382672
vn 0.980773 0.000000 -0.195074
vn 1.000000 0.000000 0.000000
vn 0.980773 0.000000 0.195074
vn 0.923856 0.000000 0.382672
vn 0.831446 0.000000 0.555559
vn 0.707083 0.000000 0.707083
vn 0.555559 0.000000 0.831446
vn 0.382672 0.000000 0.923856
vn 0.195074 0.000000 0.980773
vn 0.000000 0.000000 1.000000
vn 0.000000 0.000000 0.999969
vn -0.195074 0.000000 0.980773
vn -0.382672 0.000000 0.923856
vn -0.555559 0.000000 0.831446
vn -0.707083 0.000000 0.707083
vn -0.831446 0.000000 0.555559
vn -0.923856 0.000000 0.382672
vn -0.980773 0.000000 0.195074
vn -0.999969 0.000000 0.000000
vn -0.980773 0.000000 -0.195074
vn -0.923856 0.000000 -0.382672
vn -0.831446 0.000000 -0.555559
vn -0.707083 0.000000 -0.707083
vn -0.555559 0.000000 -0.831446
vn -0.382672 0.000000 -0.923856
vn -0.195074 0.000000 -0.980773
usemtl Material
s 1
f 1/1/1 2/2/1 3/3/2
f 3/3/2 4/4/2 5/5/3
f 5/5/3 6/6/3 7/7/4
f 7/7/4 8/8/4 9/9/5
f 9/9/5 10/10/5 11/7/6
f 11/7/6 12/8/6 13/5/7
f 13/5/7 14/6/7 15/3/8
f 15/3/8 16/4/8 17/1/9
f 17/1/9 18/2/9 19/11/10
f 19/11/10 20/12/10 21/13/11
f 21/13/11 22/14/11 23/15/12
f 23/15/12 24/16/12 25/17/13
f 25/9/13 26/10/13 27/7/14
f 27/7/14 28/8/14 29/5/15
f 29/5/15 30/6/15 31/3/16
f 31/3/16 32/4/16 33/1/17
f 33/1/17 34/2/18 35/11/19
f 35/11/19 36/12/19 37/13/20
f 37/13/20 38/14/20 39/15/21
f 39/15/21 40/16/21 41/18/22
f 41/17/22 42/19/22 43/15/23
f 43/15/23 44/16/23 45/20/24
f 45/20/24 46/21/24 47/11/25
f 47/11/25 48/12/25 49/1/26
f 49/1/26 50/2/26 51/22/27
f 51/22/27 52/23/27 53/5/28
f 53/5/28 54/6/28 55/24/29
f 55/24/29 56/25/29 57/26/30
f 57/17/30 58/19/30 59/15/31
f 59/15/31 60/16/31 61/20/32
f 63/27/33 64/28/33 1/1/1
f 61/20/32 62/21/32 63/27/33
f 2/2/1 4/4/2 3/3/2
f 4/4/2 6/6/3 5/5/3
f 6/6/3 8/8/4 7/7/4
f 8/8/4 10/10/5 9/9/5
f 10/10/5 12/8/6 11/7/6
f 12/8/6 14/6/7 13/5/7
f 14/6/7 16/4/8 15/3/8
f 16/4/8 18/2/9 17/1/9
f 18/2/9 20/12/10 19/11/10
f 20/12/10 22/14/11 21/13/11
f 22/14/11 24/16/12 23/15/12
f 24/16/12 26/19/13 25/17/13
f 26/10/13 28/8/14 27/7/14
f 28/8/14 30/6/15 29/5/15
f 30/6/15 32/4/16 31/3/16
f 32/4/16 34/2/18 33/1/17
f 34/2/18 36/12/19 35/11/19
f 36/12/19 38/14/20 37/13/20
f 38/14/20 40/16/21 39/15/21
f 40/16/21 42/29/22 41/18/22
f 42/19/22 44/16/23 43/15/23
f 44/16/23 46/21/24 45/20/24
f 46/21/24 48/12/25 47/11/25
f 48/12/25 50/2/26 49/1/26
f 50/2/26 52/23/27 51/22/27
f 52/23/27 54/6/28 53/5/28
f 54/6/28 56/25/29 55/24/29
f 56/25/29 58/30/30 57/26/30
f 58/19/30 60/16/31 59/15/31
f 60/16/31 62/21/32 61/20/32
f 64/28/33 2/2/1 1/1/1
f 62/21/32 64/28/33 63/27/33
